<mxfile host="65bd71144e">
    <diagram id="OI3xfJ6oGmwAKxaZrpa8" name="ページ1">
        <mxGraphModel dx="758" dy="609" grid="1" gridSize="10" guides="1" tooltips="1" connect="1" arrows="1" fold="1" page="1" pageScale="1" pageWidth="827" pageHeight="1169" math="0" shadow="0">
            <root>
                <mxCell id="0"/>
                <mxCell id="1" parent="0"/>
                <mxCell id="29" value="" style="ellipse;whiteSpace=wrap;html=1;strokeWidth=8;fillColor=none;" vertex="1" parent="1">
                    <mxGeometry x="190" y="382" width="50" height="40" as="geometry"/>
                </mxCell>
                <mxCell id="10" value="" style="triangle;whiteSpace=wrap;html=1;strokeWidth=8;direction=south;" vertex="1" parent="1">
                    <mxGeometry x="255" y="440" width="26.67" height="20" as="geometry"/>
                </mxCell>
                <mxCell id="12" value="" style="curved=1;endArrow=none;html=1;endFill=0;strokeWidth=8;" edge="1" parent="1">
                    <mxGeometry width="50" height="50" relative="1" as="geometry">
                        <mxPoint x="199" y="470" as="sourcePoint"/>
                        <mxPoint x="269" y="460" as="targetPoint"/>
                        <Array as="points">
                            <mxPoint x="239" y="520"/>
                        </Array>
                    </mxGeometry>
                </mxCell>
                <mxCell id="14" value="" style="curved=1;endArrow=none;html=1;endFill=0;strokeWidth=8;exitX=1;exitY=0.5;exitDx=0;exitDy=0;" edge="1" parent="1" source="10">
                    <mxGeometry width="50" height="50" relative="1" as="geometry">
                        <mxPoint x="270" y="470" as="sourcePoint"/>
                        <mxPoint x="340" y="460" as="targetPoint"/>
                        <Array as="points">
                            <mxPoint x="310" y="520"/>
                        </Array>
                    </mxGeometry>
                </mxCell>
                <mxCell id="15" value="" style="curved=1;endArrow=none;html=1;endFill=0;strokeWidth=8;" edge="1" parent="1">
                    <mxGeometry width="50" height="50" relative="1" as="geometry">
                        <mxPoint x="175" y="360" as="sourcePoint"/>
                        <mxPoint x="245" y="340" as="targetPoint"/>
                        <Array as="points">
                            <mxPoint x="185" y="230"/>
                        </Array>
                    </mxGeometry>
                </mxCell>
                <mxCell id="16" value="" style="curved=1;endArrow=none;html=1;endFill=0;strokeWidth=8;" edge="1" parent="1">
                    <mxGeometry width="50" height="50" relative="1" as="geometry">
                        <mxPoint x="291.67" y="340" as="sourcePoint"/>
                        <mxPoint x="360" y="360" as="targetPoint"/>
                        <Array as="points">
                            <mxPoint x="350" y="230"/>
                        </Array>
                    </mxGeometry>
                </mxCell>
                <mxCell id="21" value="" style="ellipse;whiteSpace=wrap;html=1;strokeWidth=8;fillColor=none;" vertex="1" parent="1">
                    <mxGeometry x="256.34" y="468" width="26.67" height="40" as="geometry"/>
                </mxCell>
                <mxCell id="22" value="" style="curved=1;endArrow=none;html=1;endFill=0;strokeWidth=8;" edge="1" parent="1">
                    <mxGeometry width="50" height="50" relative="1" as="geometry">
                        <mxPoint x="176" y="357" as="sourcePoint"/>
                        <mxPoint x="359" y="356" as="targetPoint"/>
                        <Array as="points">
                            <mxPoint x="140" y="480"/>
                            <mxPoint x="270" y="540"/>
                            <mxPoint x="390" y="480"/>
                        </Array>
                    </mxGeometry>
                </mxCell>
                <mxCell id="23" value="" style="curved=1;endArrow=none;html=1;endFill=0;strokeWidth=8;" edge="1" parent="1">
                    <mxGeometry width="50" height="50" relative="1" as="geometry">
                        <mxPoint x="243" y="337" as="sourcePoint"/>
                        <mxPoint x="295" y="336" as="targetPoint"/>
                        <Array as="points">
                            <mxPoint x="267" y="329"/>
                        </Array>
                    </mxGeometry>
                </mxCell>
                <mxCell id="19" value="" style="ellipse;whiteSpace=wrap;html=1;strokeWidth=8;container=0;fillColor=none;" vertex="1" parent="1">
                    <mxGeometry x="205" y="382" width="20" height="40" as="geometry"/>
                </mxCell>
                <mxCell id="30" value="" style="ellipse;whiteSpace=wrap;html=1;strokeWidth=8;fillColor=none;" vertex="1" parent="1">
                    <mxGeometry x="296" y="384" width="50" height="40" as="geometry"/>
                </mxCell>
                <mxCell id="31" value="" style="ellipse;whiteSpace=wrap;html=1;strokeWidth=8;container=0;fillColor=none;" vertex="1" parent="1">
                    <mxGeometry x="311" y="384" width="20" height="40" as="geometry"/>
                </mxCell>
                <mxCell id="32" value="" style="endArrow=none;html=1;strokeColor=default;strokeWidth=8;curved=1;" edge="1" parent="1">
                    <mxGeometry width="50" height="50" relative="1" as="geometry">
                        <mxPoint x="140" y="430" as="sourcePoint"/>
                        <mxPoint x="220" y="450" as="targetPoint"/>
                    </mxGeometry>
                </mxCell>
                <mxCell id="33" value="" style="endArrow=none;html=1;strokeColor=default;strokeWidth=8;curved=1;" edge="1" parent="1">
                    <mxGeometry width="50" height="50" relative="1" as="geometry">
                        <mxPoint x="140" y="448" as="sourcePoint"/>
                        <mxPoint x="220" y="468" as="targetPoint"/>
                    </mxGeometry>
                </mxCell>
                <mxCell id="34" value="" style="endArrow=none;html=1;strokeColor=default;strokeWidth=8;curved=1;" edge="1" parent="1">
                    <mxGeometry width="50" height="50" relative="1" as="geometry">
                        <mxPoint x="311" y="468" as="sourcePoint"/>
                        <mxPoint x="390" y="450" as="targetPoint"/>
                    </mxGeometry>
                </mxCell>
                <mxCell id="35" value="" style="endArrow=none;html=1;strokeColor=default;strokeWidth=8;curved=1;" edge="1" parent="1">
                    <mxGeometry width="50" height="50" relative="1" as="geometry">
                        <mxPoint x="311" y="450" as="sourcePoint"/>
                        <mxPoint x="390" y="430" as="targetPoint"/>
                    </mxGeometry>
                </mxCell>
            </root>
        </mxGraphModel>
    </diagram>
</mxfile>